<?xml version="1.0" encoding="UTF-8"?>
<svg id="Livello_2" data-name="Livello 2" xmlns="http://www.w3.org/2000/svg" viewBox="0 0 209.68 209.68">
  <defs>
    <style>
      .cls-1 {
        fill: none;
        stroke: #f2f2f2;
        stroke-miterlimit: 10;
        stroke-width: 1.53px;
      }

      .cls-2 {
        fill: #f2f2f2;
      }

      .cls-3 {
        fill: #144b5f;
      }
    </style>
  </defs>
  <g id="Livello_3" data-name="Livello 3">
    <g>
      <path class="cls-2" d="m150.71,97.31h0c2.83-10.71,5.9-21.7,8.17-29.67.76-2.66-2.67-4.46-4.43-2.32l-21.15,25.51s-39.38-5.89-49.66-14.75c-6.3-5.43-12.65-23.01-16.63-35.82-1.23-3.96-6.86-3.87-7.93.13-.81,3.02-1.62,6.06-2.45,9.12-10.17,37.84-6.73,77.19,8.37,111.64,29.26-.16,58.55.23,87.5-2.92-7.58-14.01-8.3-28.64-6.98-40.05,1.36-6.06,3.21-13.38,5.18-20.86Zm-56.55,39.59c2-1.14,3.48-1.34,4.46-.62-1.64.67-3.12.87-4.46.62Z"/>
      <circle class="cls-1" cx="104.84" cy="104.84" r="104.07" transform="translate(-43.43 104.84) rotate(-45)"/>
      <path class="cls-3" d="m82.74,129.63l-3.72.34c-2.24.21-4.22-1.44-4.43-3.68l-1.41-15.26c-.21-2.24,1.44-4.22,3.68-4.43l3.72-.35c2.24-.2,4.22,1.44,4.43,3.68l1.41,15.26c.2,2.24-1.44,4.22-3.68,4.43"/>
      <path class="cls-3" d="m115.7,132.2l-3.72.34c-2.24.21-4.22-1.44-4.43-3.68l-1.41-15.26c-.21-2.24,1.44-4.22,3.68-4.43l3.72-.35c2.24-.2,4.22,1.44,4.43,3.68l1.41,15.26c.2,2.24-1.44,4.22-3.68,4.43"/>
    </g>
  </g>
</svg>